<svg width="1200" height="630" viewBox="0 0 1200 630" xmlns="http://www.w3.org/2000/svg">
  <defs>
    <linearGradient id="bg" x1="0" y1="0" x2="1" y2="1">
      <stop offset="0%" stop-color="#f6f7fb"/>
      <stop offset="100%" stop-color="#ecebff"/>
    </linearGradient>
  </defs>
  <rect width="1200" height="630" fill="url(#bg)"/>
  <circle cx="1080" cy="80" r="220" fill="#5b4cf0" opacity="0.12"/>
  <circle cx="60" cy="560" r="180" fill="#c98a1a" opacity="0.10"/>

  <rect x="90" y="90" width="64" height="64" rx="16" fill="#5b4cf0"/>
  <g transform="translate(112,112)">
    <path d="M0 10 h20 a4 4 0 0 1 4 4 v6 a4 4 0 0 1 -4 4 h-20 a4 4 0 0 1 -4 -4 v-6 a4 4 0 0 1 4 -4 z" fill="none" stroke="#ffffff" stroke-width="2.4"/>
    <path d="M-2 10 v-4 a4 4 0 0 1 4 -4 h16" fill="none" stroke="#ffffff" stroke-width="2.4"/>
    <circle cx="16" cy="17" r="1.8" fill="#ffffff"/>
  </g>
  <text x="172" y="140" font-family="Georgia, 'Times New Roman', serif" font-size="34" font-weight="600" fill="#1a1a1a">ExpenseAI</text>

  <text x="90" y="280" font-family="Georgia, 'Times New Roman', serif" font-size="64" font-weight="600" fill="#1a1a1a">Know exactly where</text>
  <text x="90" y="352" font-family="Georgia, 'Times New Roman', serif" font-size="64" font-weight="600" fill="#1a1a1a">your money goes.</text>

  <text x="90" y="410" font-family="Arial, sans-serif" font-size="24" fill="#6b7280">AI-powered expense tracking, budgeting, and insights.</text>

  <g transform="translate(90,460)">
    <rect width="280" height="90" rx="18" fill="#ffffff" stroke="#e5e7eb"/>
    <text x="24" y="34" font-family="Arial, sans-serif" font-size="13" fill="#6b7280">HEALTH SCORE</text>
    <text x="24" y="70" font-family="Georgia, serif" font-size="32" font-weight="700" fill="#10b981">82/100</text>
  </g>
  <g transform="translate(400,460)">
    <rect width="280" height="90" rx="18" fill="#ffffff" stroke="#e5e7eb"/>
    <text x="24" y="34" font-family="Arial, sans-serif" font-size="13" fill="#6b7280">CURRENCIES</text>
    <text x="24" y="70" font-family="Georgia, serif" font-size="32" font-weight="700" fill="#1a1a1a">USD · INR · EUR · GBP</text>
  </g>
</svg>
